<?xml version="1.0" standalone="no"?>
<!DOCTYPE svg PUBLIC "-//W3C//DTD SVG 20010904//EN"
 "http://www.w3.org/TR/2001/REC-SVG-20010904/DTD/svg10.dtd">
<svg version="1.0" xmlns="http://www.w3.org/2000/svg"
 width="382.000000pt" height="405.000000pt" viewBox="0 0 382.000000 405.000000"
 preserveAspectRatio="xMidYMid meet">

<g transform="translate(0.000000,405.000000) scale(0.100000,-0.100000)"
fill="#000000" stroke="none">
<path d="M780 3886 c-285 -105 -507 -345 -596 -643 -22 -72 -27 -115 -31 -234
-6 -170 3 -239 53 -388 81 -243 226 -457 412 -607 l92 -75 0 -503 c0 -405 3
-520 15 -591 33 -185 116 -337 260 -473 69 -65 107 -92 188 -132 191 -94 191
-94 737 -94 546 0 546 0 737 94 176 87 332 257 403 441 56 145 60 201 60 755
l0 503 89 71 c227 182 416 502 461 782 20 125 8 343 -24 452 -56 187 -180 373
-324 487 -70 54 -240 148 -301 165 l-24 6 21 -33 c69 -113 102 -177 102 -200
0 -29 -21 -51 -100 -103 l-56 -36 56 -59 c239 -253 247 -665 18 -1018 -54 -83
-143 -182 -175 -194 -17 -6 -52 -1 -127 20 -541 152 -1042 157 -1593 16 -76
-20 -148 -33 -160 -30 -32 8 -153 144 -205 232 -205 347 -189 730 42 974 l56
59 -56 36 c-79 52 -100 74 -100 103 0 23 33 87 102 199 22 35 19 37 -32 18z
m602 -2422 c54 -18 138 -88 175 -147 35 -56 62 -140 69 -216 16 -178 -80 -366
-223 -437 -60 -30 -203 -27 -266 5 -63 32 -142 117 -171 183 -81 185 -53 386
72 520 102 109 206 137 344 92z m1294 -10 c64 -30 148 -117 179 -187 101 -219
19 -500 -172 -597 -73 -37 -184 -40 -255 -8 -254 117 -318 498 -120 711 56 59
93 82 163 101 68 19 138 12 205 -20z"/>
</g>
</svg>
