<?xml version="1.0" standalone="no"?>
<!DOCTYPE svg PUBLIC "-//W3C//DTD SVG 20010904//EN"
 "http://www.w3.org/TR/2001/REC-SVG-20010904/DTD/svg10.dtd">
<svg version="1.0" xmlns="http://www.w3.org/2000/svg"
 width="382.000000pt" height="405.000000pt" viewBox="0 0 382.000000 405.000000"
 preserveAspectRatio="xMidYMid meet">

<g transform="translate(0.000000,405.000000) scale(0.100000,-0.100000)"
fill="#000000" stroke="none">
<path d="M728 3866 c-209 -91 -383 -258 -485 -466 -104 -212 -127 -478 -63
-709 76 -271 250 -539 444 -685 41 -31 76 -63 80 -71 3 -9 6 -243 6 -520 0
-396 3 -519 14 -577 68 -345 318 -602 661 -679 86 -20 964 -20 1050 0 343 77
593 334 661 679 11 58 14 182 14 584 l0 511 33 28 c17 16 61 53 97 82 172 140
340 420 406 674 43 166 36 389 -17 555 -68 213 -216 403 -409 527 -58 37 -207
104 -221 99 -5 -2 18 -48 51 -103 82 -137 81 -143 -25 -215 l-73 -49 59 -62
c71 -74 142 -210 164 -314 19 -90 19 -254 1 -342 -36 -168 -123 -342 -238
-476 -71 -82 -93 -90 -177 -66 -558 162 -1068 170 -1637 24 -76 -19 -145 -33
-155 -30 -24 8 -120 113 -170 187 -54 79 -112 204 -139 298 -31 107 -38 301
-15 404 24 110 92 240 164 315 l59 62 -73 49 c-99 67 -104 83 -52 170 105 174
106 167 -15 116z m679 -2416 c112 -56 190 -172 214 -318 30 -181 -57 -377
-202 -457 -49 -27 -63 -30 -144 -30 -81 0 -95 3 -143 29 -172 96 -255 337
-185 541 73 218 282 324 460 235z m1268 1 c152 -72 247 -273 218 -461 -22
-137 -99 -257 -205 -316 -48 -26 -62 -29 -143 -29 -81 0 -95 3 -144 30 -145
80 -232 276 -202 457 43 267 269 418 476 319z"/>
</g>
</svg>
